<svg width="24" height="25" viewBox="0 0 24 25" fill="none" xmlns="http://www.w3.org/2000/svg">
<g clip-path="url(#clip0_600_4854)">
<path d="M2.27043 16.2617H12.111V18.0698H18.2625V16.2657H20.7064C20.8646 18.416 20.8771 20.3305 18.6716 21.7899C18.6447 21.8076 18.623 21.8319 18.5633 21.8851C18.8345 22.1104 19.1018 22.333 19.3665 22.5531C19.0092 22.8946 18.7222 23.1691 18.3932 23.4844C18.1029 23.1849 17.7889 22.8374 17.4467 22.5209C17.3462 22.4276 17.1683 22.3895 17.0224 22.3803C16.784 22.3659 16.5423 22.4046 16.302 22.4053C13.1067 22.4072 9.91145 22.4066 6.71554 22.4066C6.56251 22.4066 6.39897 22.4361 6.25777 22.3935C5.83151 22.2654 5.56092 22.4631 5.3074 22.7685C5.09132 23.0286 4.84502 23.263 4.61975 23.5008C4.31566 23.1809 4.04046 22.8919 3.73572 22.5708C3.93998 22.3902 4.19941 22.1603 4.49102 21.9015C4.29004 21.7577 4.13964 21.6579 3.99712 21.5475C2.92919 20.7246 2.35187 19.633 2.27634 18.2925C2.23891 17.6285 2.26977 16.9605 2.26977 16.2617H2.27043Z" fill="#022A66"/>
<path d="M2.27359 11.2872C2.26834 11.1683 2.25914 11.0613 2.25914 10.9542C2.25848 9.21375 2.25651 7.47393 2.25914 5.73345C2.26177 3.8209 3.58913 2.48631 5.49905 2.50011C6.14007 2.5047 6.8008 2.49157 7.41686 2.63672C8.50975 2.89483 9.19806 3.65276 9.53039 4.72069C9.59476 4.92824 9.67817 5.02872 9.90607 5.09046C11.1921 5.43921 12.0945 6.64113 12.1109 7.98228C12.1135 8.19836 12.1109 8.41444 12.1109 8.64891H6.02382C5.73353 7.11401 6.56764 5.52985 8.3114 5.03529C8.15377 4.35027 7.47926 3.7723 6.77124 3.74734C6.23597 3.72829 5.69872 3.72632 5.16344 3.74734C4.24066 3.78346 3.49849 4.63071 3.49455 5.64676C3.48798 7.39774 3.49258 9.14938 3.49258 10.9004C3.49258 11.0199 3.49258 11.1394 3.49258 11.2866H2.27228L2.27359 11.2872Z" fill="#022A66"/>
<path d="M12.0936 15.0328C11.9648 15.0328 11.8683 15.0328 11.7718 15.0328C8.64415 15.0328 5.51589 15.0335 2.38828 15.0321C1.71508 15.0321 1.23103 14.7136 1.06092 14.1698C0.804777 13.3514 1.38472 12.5633 2.26875 12.5515C3.20926 12.539 4.14978 12.5482 5.09029 12.5482C7.29971 12.5482 9.50847 12.5482 11.7179 12.5482C11.8361 12.5482 11.9543 12.5482 12.0936 12.5482V15.0321V15.0328Z" fill="#022A66"/>
<path d="M17.0247 16.8712H13.3644C13.3585 16.7556 13.3486 16.6506 13.3486 16.5455C13.3473 15.2772 13.3473 14.0083 13.3486 12.7401C13.3493 11.8225 13.8504 11.3181 14.764 11.3142C15.1029 11.3129 15.4418 11.3057 15.7807 11.3162C16.5419 11.3405 17.0391 11.8521 17.0411 12.6153C17.045 13.9387 17.0424 15.2615 17.0411 16.5849C17.0411 16.6709 17.0319 16.7563 17.0247 16.8712Z" fill="#022A66"/>
<path d="M18.2852 15.0213V12.5485C18.8802 12.5485 19.4667 12.5465 20.0526 12.5491C20.358 12.5504 20.6699 12.5255 20.9688 12.5747C21.621 12.6824 22.0452 13.2164 22.0183 13.8397C21.992 14.4512 21.5408 14.9759 20.9005 15.0094C20.0414 15.0547 19.1784 15.0206 18.2858 15.0206L18.2852 15.0213Z" fill="#022A66"/>
</g>
<defs>
<clipPath id="clip0_600_4854">
<rect width="21.0171" height="21" fill="white" transform="translate(1 2.5)"/>
</clipPath>
</defs>
</svg>
