<svg width="24" height="25" viewBox="0 0 24 25" fill="none" xmlns="http://www.w3.org/2000/svg">
<g clip-path="url(#clip0_600_4848)">
<path d="M12.0119 19.9599C9.01369 19.9599 6.01627 19.9599 3.01806 19.9599C2.71493 19.9599 2.57479 20.0987 2.57479 20.3979C2.57479 20.4754 2.57872 20.553 2.574 20.6297C2.5677 20.7227 2.55825 20.8157 2.54093 20.9064C2.47637 21.2374 2.15907 21.5026 1.77957 21.4987C1.39849 21.4948 1.08277 21.2119 1.02529 20.8483C1.01191 20.763 1.00482 20.6754 1.00482 20.5894C1.00403 18.8281 0.992223 17.0661 1.00876 15.3049C1.0182 14.2785 1.39771 13.3855 2.12521 12.6421C2.56691 12.1909 3.09207 11.87 3.69282 11.6654C4.16522 11.5049 4.65338 11.4561 5.15098 11.4561C9.76246 11.4576 14.3739 11.4537 18.9854 11.4592C20.3365 11.4607 21.4309 11.9971 22.2419 13.0638C22.6403 13.5886 22.8781 14.1847 22.9592 14.8359C22.9867 15.0553 22.9985 15.2785 22.9993 15.5002C23.0025 17.2103 23.0017 18.9204 23.0009 20.6305C23.0009 20.8979 22.934 21.1413 22.7104 21.3181C22.4741 21.5049 22.2104 21.5537 21.9293 21.4398C21.66 21.3297 21.49 21.1274 21.4514 20.8382C21.4317 20.6925 21.4341 20.5429 21.4301 20.3956C21.4238 20.1576 21.3238 20.0142 21.1239 19.97C21.0798 19.9599 21.0333 19.9607 20.9876 19.9607C17.9965 19.9607 15.0054 19.9607 12.0135 19.9607L12.0119 19.9599Z" fill="#022A66"/>
<path d="M11.903 4.5C13.8477 4.5 15.7916 4.5 17.7356 4.5C18.3867 4.5 18.9954 4.64341 19.5205 5.03953C20.1961 5.54884 20.5905 6.21938 20.6236 7.06124C20.6519 7.77519 20.6393 8.4907 20.6425 9.20543C20.6448 9.66589 20.6425 10.1264 20.6425 10.5868C20.6425 10.6279 20.6401 10.6713 20.6291 10.7109C20.5952 10.8357 20.5267 10.8853 20.3976 10.8612C20.2567 10.8349 20.1205 10.7783 19.9795 10.7628C19.6481 10.7271 19.3158 10.7023 18.9828 10.6853C18.7607 10.6736 18.6922 10.6341 18.6607 10.4194C18.56 9.73876 17.9198 9.12636 17.101 9.13566C16.1877 9.14574 15.2744 9.13798 14.3618 9.13798C13.6824 9.13798 13.1021 9.53643 12.8714 10.1643C12.8383 10.2543 12.8257 10.3519 12.8084 10.4465C12.7761 10.6163 12.7123 10.6798 12.5407 10.6822C12.1809 10.686 11.8203 10.686 11.4605 10.6822C11.2951 10.6806 11.2298 10.6163 11.1999 10.4279C11.1581 10.1636 11.0542 9.92791 10.8841 9.72093C10.5763 9.34574 10.1779 9.14186 9.68657 9.13953C8.74412 9.13488 7.80167 9.13721 6.85843 9.13876C6.06636 9.13953 5.44672 9.74884 5.34594 10.4178C5.31366 10.6341 5.24831 10.6721 5.02628 10.686C4.65859 10.7101 4.2909 10.7442 3.924 10.7829C3.8114 10.7946 3.70354 10.8426 3.59174 10.8612C3.47127 10.8806 3.41537 10.8403 3.38151 10.724C3.36813 10.6783 3.36183 10.6295 3.36183 10.5814C3.36104 9.47674 3.34608 8.37209 3.36498 7.26744C3.38466 6.11163 3.92714 5.26202 4.98849 4.74806C5.40893 4.54574 5.8648 4.5 6.32618 4.5C8.18511 4.5 10.044 4.5 11.903 4.5Z" fill="#022A66"/>
</g>
<defs>
<clipPath id="clip0_600_4848">
<rect width="22" height="17" fill="white" transform="translate(1 4.5)"/>
</clipPath>
</defs>
</svg>
